{"title":"The.Hateful.Eight.2015.DVDScr.XVID.AC3.HQ.Hive-CM8","uid":13050737,"size":2597762970,"categoryP":"video","categoryS":"movies","magnet":"?xt=urn:btih:808b0c0b01be19fe0befef373078f8fde1db3759&amp;dn=The.Hateful.Eight.2015.DVDScr.XVID.AC3.HQ.Hive-CM8&amp;tr=udp%3A%2F%2Ftracker.leechers-paradise.org%3A6969&amp;tr=udp%3A%2F%2Fzer0day.ch%3A1337&amp;tr=udp%3A%2F%2Fopen.demonii.com%3A1337&amp;tr=udp%3A%2F%2Ftracker.coppersurfer.tk%3A6969&amp;tr=udp%3A%2F%2Fexodus.desync.com%3A6969","seeders":1,"leechers":4,"uploader":"TheRival","files":3,"time":1450619427,"description":"Screens: \nhttp://extraimago.com/image/58h \nhttp://extraimago.com/image/58b \nhttp://extraimago.com/image/583 \nhttp://extraimago.com/image/589 \nhttp://extraimago.com/image/58M \nhttp://extraimago.com/image/58U\r\n\r\nThe.Hateful.Eight.2015.DVDScr.XVID.AC3.HQ.Hive-CM8\r\n\r\nThx Hive\r\n\r\nCM8 Doing It Right The First Time\r\n\r\nSource: DVD-Screener Big Thanks M8\r\n\r\nNotes:\r\n\r\nDVDScreener 1 of 40 :wink:\r\nwill do them all one after each other, started with the hottest title of this year, the rest will follow\r\n\r\nEncode:\r\n\r\nquality was perfect on this.\r\nAll digital watermarks are removed,were quite a lot even had to crop 10 lines to get it done safely.\r\nFixed brightness,contrast and rgb, and added sharpness.\r\n\r\ngot very nice\r\nenjoy\r\n\r\n\r\nVideo:720x266 @bitrate 1600 2pass\r\nAudio: English AC3 5.1 @448\r\nSample: yes include\r\n\r\nVideo\r\nID                                       : 0\r\nFormat                                   : MPEG-4 Visual\r\nFormat profile                           : Advanced   \r\nFormat settings, BVOP                    : 3\r\nFormat settings, QPel                    : Yes\r\nFormat settings, GMC                     : No warppoints\r\nFormat settings, Matrix                  : Default (H.263)\r\nMuxing mode                              : Packed bitstream\r\nCodec ID                                 : XVID\r\nCodec ID/Hint                            : XviD\r\nDuration                                 : 2h 47mn\r\nBit rate                                 : 1 600 Kbps\r\nWidth                                    : 720 pixels\r\nHeight                                   : 260 pixels\r\nDisplay aspect ratio                     : 2.769\r\nFrame rate                               : 29.970 (30000/1001) fps\r\nColor space                              : YUV\r\nChroma subsampling                       : 4:2:0\r\nBit depth                                : 8 bits\r\nScan type                                : Progressive\r\nCompression mode                         : Lossy\r\nBits/(Pixel*Frame)                       : 0.285\r\nStream size                              : 1.88 GiB (78%)\r\nWriting library                          : XviD 1.2.1 (UTC 2008-12-04)\r\n\r\nAudio\r\nID                                       : 1\r\nFormat                                   : AC-3\r\nFormat/Info                              : Audio Coding 3\r\nMode extension                           : CM (complete main)\r\nFormat settings, Endianness              : Big\r\nCodec ID                                 : 2000\r\nDuration                                 : 2h 47mn\r\nBit rate mode                            : Constant\r\nBit rate                                 : 448 Kbps\r\nChannel(s)                               : 6 channels\r\nChannel positions                        : Front: L C R, Side: L R, LFE\r\nSampling rate                            : 48.0 KHz\r\nFrame rate                               : 31.250 fps (1536 spf)\r\nCompression mode                         : Lossy\r\nStream size                              : 538 MiB (22%)\r\nAlignment                                : Aligned on interleaves\r\nInterleave, duration                     : 64 ms (1.92 video frames)\r\nInterleave, preload duration             : 192 ms\r\nTitle                                    : Hateful Eight_track3","torrent":{"xt":"urn:btih:808b0c0b01be19fe0befef373078f8fde1db3759","amp;dn":"The.Hateful.Eight.2015.DVDScr.XVID.AC3.HQ.Hive-CM8","amp;tr":["udp%3A%2F%2Ftracker.leechers-paradise.org%3A6969","udp%3A%2F%2Fzer0day.ch%3A1337","udp%3A%2F%2Fopen.demonii.com%3A1337","udp%3A%2F%2Ftracker.coppersurfer.tk%3A6969","udp%3A%2F%2Fexodus.desync.com%3A6969"],"infoHash":"808b0c0b01be19fe0befef373078f8fde1db3759","infoHashBuffer":{"type":"Buffer","data":[128,139,12,11,1,190,25,254,11,239,239,55,48,120,248,253,225,219,55,89]},"announce":[],"urlList":[]}}